<svg xmlns="http://www.w3.org/2000/svg" width="1600" height="1600" viewBox="0 0 1600 1600" version="1.1"><path d="M 442.945 1015.568 C 433.051 1025.496, 431.143 1027.833, 433.636 1026.970 C 436.929 1025.829, 477.303 1025.963, 478.454 1027.119 C 478.793 1027.459, 479.048 1048.241, 479.021 1073.301 C 478.981 1108.980, 479.245 1119.041, 480.235 1119.682 C 480.931 1120.132, 501.918 1120.563, 526.873 1120.640 C 563.921 1120.755, 572.404 1121.030, 573.108 1122.140 C 573.582 1122.888, 573.976 1132.922, 573.985 1144.437 L 574 1165.374 584.250 1155.437 C 589.888 1149.972, 594.656 1144.884, 594.846 1144.132 C 595.068 1143.255, 594.743 1143.041, 593.942 1143.536 C 593.092 1144.061, 592.943 1143.902, 593.476 1143.038 C 594.355 1141.617, 460.485 1007, 458.194 1007 C 457.472 1007, 457.129 1006.601, 457.430 1006.113 C 457.731 1005.626, 457.396 1004.743, 456.684 1004.153 C 455.694 1003.331, 452.469 1006.012, 442.945 1015.568 M 361.109 1097.391 L 337.734 1120.782 360.284 1120.641 C 372.687 1120.563, 383.209 1120.125, 383.667 1119.666 C 384.219 1119.113, 385.034 1074.002, 384.492 1074 C 384.488 1074, 373.965 1084.526, 361.109 1097.391 M 385.667 1121.667 C 385.300 1122.033, 385 1143.189, 385 1168.679 L 385 1215.024 432 1214.980 L 479 1214.936 479 1169.003 C 479 1124.614, 478.935 1123.036, 477.066 1122.035 C 474.913 1120.883, 386.805 1120.528, 385.667 1121.667 M 254.476 1203.804 C 234.663 1223.437, 224.127 1233.987, 231.062 1227.250 L 243.672 1215 261.086 1214.881 C 270.664 1214.815, 281.071 1214.855, 284.214 1214.971 L 289.929 1215.180 290.214 1191.589 C 290.371 1178.614, 290.500 1168.023, 290.500 1168.053 C 290.500 1168.083, 274.289 1184.171, 254.476 1203.804 M 290.458 1216.250 C 290.194 1216.938, 290.096 1238.200, 290.239 1263.500 L 290.500 1309.500 336 1309.699 C 361.025 1309.809, 382.279 1309.921, 383.231 1309.949 C 384.810 1309.996, 384.985 1311.934, 385.231 1332.010 L 385.500 1354.019 407.491 1332.010 L 429.483 1310 407.241 1310 C 386.764 1310, 384.992 1309.861, 384.901 1308.250 C 384.846 1307.287, 384.883 1290.300, 384.984 1270.500 C 385.084 1250.700, 384.842 1230.112, 384.446 1224.750 L 383.726 1215 337.332 1215 C 301.138 1215, 290.832 1215.275, 290.458 1216.250 M 479.554 1215.912 C 479.218 1216.456, 479.016 1226.647, 479.105 1238.558 L 479.267 1260.216 501.634 1237.866 C 513.935 1225.574, 524 1215.473, 524 1215.420 C 524 1215.366, 514.137 1215.233, 502.082 1215.124 C 488.502 1215, 479.933 1215.300, 479.554 1215.912 M 204 1309.779 C 204 1309.932, 205.308 1312.632, 206.907 1315.779 C 211.321 1324.468, 218.271 1332.586, 240.335 1354.825 C 265.495 1380.186, 274.926 1388.078, 286.250 1393.254 L 290 1394.968 290 1352.505 L 290 1310.042 247 1309.771 C 223.350 1309.622, 204 1309.625, 204 1309.779" stroke="none" fill="#fdf08d" fill-rule="evenodd"/><path d="" stroke="none" fill="#000000" fill-rule="evenodd"/><path d="M 432.500 1027.424 C 430.850 1028.196, 419.375 1038.989, 407 1051.409 L 384.500 1073.991 384.500 1096.411 C 384.500 1108.742, 384.125 1119.207, 383.667 1119.666 C 383.209 1120.125, 372.676 1120.563, 360.259 1120.641 L 337.684 1120.782 313.842 1144.683 L 290 1168.585 290 1191.884 L 290 1215.184 284.250 1214.973 C 281.087 1214.856, 270.625 1214.810, 261 1214.870 L 243.500 1214.979 227.980 1230.740 C 211.433 1247.543, 206.973 1254.047, 202.831 1267.417 C 199.128 1279.368, 199.455 1296.610, 203.577 1306.750 L 204.898 1310 247.438 1310 L 289.979 1310 290.239 1352.650 L 290.500 1395.299 294.500 1396.785 C 300.822 1399.133, 324.805 1399.031, 332.500 1396.622 C 345.851 1392.444, 351.509 1388.534, 368.824 1371.526 L 385.147 1355.490 385.038 1333.043 C 384.978 1320.697, 384.755 1310.422, 384.543 1310.209 C 384.330 1309.997, 363.084 1309.750, 337.328 1309.662 L 290.500 1309.500 290.500 1262.500 L 290.500 1215.500 337.112 1215.240 L 383.725 1214.980 384.440 1224.729 C 384.834 1230.091, 385.036 1251.236, 384.889 1271.717 C 384.742 1292.198, 384.841 1309.174, 385.109 1309.442 C 385.377 1309.710, 395.665 1309.978, 407.972 1310.038 L 430.348 1310.147 455.924 1284.446 C 469.991 1270.311, 480.988 1259.023, 480.362 1259.363 C 479.525 1259.816, 479.261 1254.095, 479.362 1237.740 L 479.500 1215.500 501.722 1215.391 C 517.711 1215.313, 523.775 1215.594, 523.342 1216.391 C 523.012 1217.001, 534.387 1205.917, 548.621 1191.760 L 574.500 1166.020 574 1144.090 C 573.725 1132.029, 573.188 1121.850, 572.807 1121.471 C 572.426 1121.091, 551.726 1120.717, 526.807 1120.640 C 501.888 1120.563, 480.931 1120.132, 480.235 1119.682 C 479.245 1119.041, 478.981 1108.980, 479.021 1073.301 C 479.048 1048.241, 478.793 1027.459, 478.454 1027.119 C 478.115 1026.778, 468.312 1026.392, 456.669 1026.260 C 440.197 1026.074, 434.834 1026.332, 432.500 1027.424 M 385.667 1121.667 C 385.300 1122.033, 385 1143.189, 385 1168.679 L 385 1215.024 432 1214.980 L 479 1214.936 479 1169.003 C 479 1124.614, 478.935 1123.036, 477.066 1122.035 C 474.913 1120.883, 386.805 1120.528, 385.667 1121.667" stroke="none" fill="#fec61a" fill-rule="evenodd"/><path d="M 785.006 201.583 C 785.009 202.637, 785.431 205.075, 785.945 207 C 787.148 211.510, 789.710 232.709, 790.573 245.294 C 790.942 250.681, 791.464 254.869, 791.733 254.600 C 792.607 253.726, 789.989 224.565, 787.948 212.442 C 786.066 201.262, 784.993 197.302, 785.006 201.583 M 1396.069 208.154 C 1394.298 212.114, 1391.737 218.312, 1390.377 221.927 C 1375.651 261.074, 1346.603 320.267, 1316.977 371.500 C 1275.243 443.672, 1221.709 520.229, 1158.593 598 C 1135.154 626.880, 1093.025 676.422, 1087.145 682.017 C 1085.690 683.402, 1083.452 685.877, 1082.170 687.517 C 1079.937 690.376, 1069.229 702.276, 1058.365 713.972 C 1055.541 717.012, 1050.141 722.870, 1046.365 726.989 C 1039.802 734.149, 1033.324 741.026, 1010.090 765.500 C 1004.346 771.550, 980.443 795.636, 956.971 819.024 L 914.295 861.547 913.588 866.524 C 911.159 883.616, 903.202 900.490, 891.140 914.126 C 883.199 923.103, 861.196 937.925, 857.631 936.698 C 857.009 936.484, 860.348 933.820, 865.051 930.777 C 891.529 913.647, 904.577 895.281, 910.003 867.500 C 910.647 864.200, 912.373 859.736, 913.837 857.580 C 916.413 853.789, 916.499 853.201, 916.474 839.580 C 916.460 831.836, 916.076 820.608, 915.620 814.628 L 914.791 803.757 910.430 804.355 C 900.100 805.770, 869.887 822.624, 858.183 833.500 C 842.514 848.060, 831.032 871.056, 827.442 895.069 C 825.813 905.960, 825.397 922.322, 826.519 931.304 C 827.531 939.405, 825.914 943.245, 819.428 948.142 C 814.708 951.706, 810.955 953.140, 789.395 959.622 C 755.987 969.665, 737.693 975.720, 710.500 985.734 C 697.850 990.392, 684.189 995.263, 680.142 996.558 C 676.094 997.853, 671.759 999.583, 670.508 1000.403 C 669.257 1001.223, 660.193 1005.250, 650.366 1009.353 C 620.445 1021.845, 600.286 1030.794, 596.059 1033.463 C 593.848 1034.858, 591.832 1036, 591.577 1036 C 590.679 1036, 591.995 1031.502, 592.990 1031.170 C 593.546 1030.985, 594 1030.432, 594 1029.941 C 594 1029.450, 596.838 1024.650, 600.306 1019.274 C 621.559 986.331, 652.476 930.440, 671.402 890.750 C 675.533 882.087, 678.547 875, 678.101 875 C 677.655 875, 674.528 877.669, 671.152 880.932 C 664.749 887.119, 662.068 889.035, 627.259 912.302 C 591.180 936.417, 571.683 948.446, 571.153 946.917 C 570.936 946.293, 570.268 946.362, 569.379 947.101 C 568.594 947.752, 567.777 948.108, 567.563 947.893 C 567.349 947.677, 572.553 937.825, 579.128 926 C 600.392 887.756, 641.562 801.799, 636.670 805.859 C 635.914 806.486, 632.895 812.512, 629.961 819.250 C 613.898 856.136, 584.685 914.279, 569.040 940.500 C 566.414 944.900, 561.659 953, 558.472 958.500 C 549.061 974.742, 540.534 988.267, 526.319 1009.500 C 505.237 1040.989, 504.712 1041.681, 502.061 1041.486 C 500.480 1041.370, 493.354 1034.892, 479.866 1021.311 C 468.940 1010.310, 459.944 1001.689, 459.875 1002.154 C 459.806 1002.619, 459.694 1003.597, 459.625 1004.327 C 459.468 1005.991, 518.124 1066.041, 519.235 1065.355 C 519.683 1065.078, 519.926 1065.447, 519.775 1066.176 C 519.623 1066.909, 520.170 1067.351, 521 1067.167 C 521.825 1066.983, 522.156 1067.177, 521.736 1067.597 C 520.913 1068.420, 525.765 1074, 527.304 1074 C 527.815 1074, 530.707 1076.695, 533.730 1079.989 C 536.753 1083.283, 539.695 1085.689, 540.268 1085.335 C 540.840 1084.981, 541.038 1085.129, 540.707 1085.665 C 539.923 1086.934, 561.356 1108.311, 562.383 1107.283 C 562.814 1106.853, 563.017 1107.175, 562.833 1108 C 562.649 1108.830, 563.091 1109.377, 563.824 1109.225 C 564.553 1109.074, 564.901 1109.351, 564.598 1109.842 C 563.852 1111.049, 567.448 1114.199, 568.491 1113.252 C 568.948 1112.838, 569.034 1113.002, 568.684 1113.616 C 567.950 1114.902, 571.324 1118.343, 572.331 1117.336 C 572.699 1116.968, 573 1117.245, 573 1117.951 C 573 1119.512, 580.961 1127.601, 582.152 1127.250 C 582.618 1127.112, 582.888 1127.394, 582.750 1127.875 C 582.613 1128.357, 585.953 1132.355, 590.173 1136.761 L 597.845 1144.771 600.477 1142.024 C 601.924 1140.514, 610.171 1134.558, 618.804 1128.789 C 635.297 1117.767, 637.609 1116.315, 658.500 1103.849 C 665.650 1099.583, 672.044 1095.622, 672.708 1095.046 C 673.372 1094.471, 674.296 1094, 674.762 1094 C 675.228 1094, 677.609 1092.733, 680.054 1091.185 C 692.703 1083.177, 719.329 1069.486, 719.757 1070.770 C 720.033 1071.598, 720.816 1071.585, 722.716 1070.720 C 725.291 1069.547, 725.292 1069.541, 723.042 1069.010 C 721.343 1068.609, 728.417 1064.684, 751.643 1053.139 C 768.614 1044.703, 785.200 1036.566, 788.500 1035.058 C 791.800 1033.550, 797.105 1031.098, 800.288 1029.609 C 817.345 1021.630, 839.048 1012.912, 840.153 1013.594 C 840.619 1013.882, 841 1013.326, 841 1012.359 C 841 1008.227, 842.912 1013.165, 844.926 1022.500 C 853.427 1061.886, 867.849 1084.943, 893.606 1100.324 C 905.808 1107.610, 927.738 1114.954, 947.500 1118.372 C 951.900 1119.133, 955.547 1119.698, 955.604 1119.628 C 956.013 1119.125, 953.705 1099.985, 952.454 1093.500 C 944.468 1052.101, 921.087 1027.047, 875.079 1010.586 C 868.798 1008.339, 863.466 1005.918, 863.231 1005.206 C 862.942 1004.329, 863.559 1004.041, 865.152 1004.311 C 866.443 1004.529, 866.938 1004.516, 866.250 1004.281 C 863.681 1003.402, 865.279 1002.401, 875.258 998.636 C 911.056 985.132, 955.495 970.569, 974.700 966.048 C 977.561 965.375, 980.399 964.224, 981.008 963.491 C 982.417 961.793, 982.103 961.865, 960.500 968.193 C 937.990 974.787, 914.099 982.592, 888.809 991.617 C 869.296 998.579, 859.526 1001.021, 864.527 997.684 C 871.756 992.861, 952.318 965.931, 973.885 961.128 C 982.061 959.308, 983.004 960.522, 987 978 C 993.181 1005.032, 1002.414 1024.555, 1014.932 1037.063 C 1029.787 1051.906, 1059.295 1065.933, 1084.190 1069.987 C 1092.551 1071.349, 1096 1072.515, 1096 1073.979 C 1096 1075.620, 1090.638 1075.172, 1079.190 1072.574 C 1052.855 1066.597, 1031.047 1055.993, 1012.436 1040.114 C 1010.751 1038.676, 1011.651 1039.683, 1014.436 1042.350 C 1025.004 1052.472, 1045.102 1063.843, 1061.500 1068.978 C 1070.721 1071.865, 1086.243 1075.603, 1092.500 1076.443 C 1095.250 1076.812, 1098.352 1077.364, 1099.394 1077.670 C 1101.206 1078.202, 1101.264 1077.628, 1100.742 1064.363 C 1099.613 1035.640, 1090.132 1010.757, 1073.895 993.899 C 1070.928 990.819, 1070.090 990.144, 1072.034 992.399 C 1085.999 1008.604, 1093.442 1024.126, 1097.555 1045.626 C 1099.142 1053.919, 1099.527 1073, 1098.107 1073 C 1096.665 1073, 1096 1070.221, 1095.996 1064.168 C 1095.987 1051.085, 1090.613 1029.099, 1084.423 1016.820 C 1080.153 1008.351, 1072.137 997.325, 1066.505 992.178 C 1054.260 980.987, 1032.676 968.600, 1015.750 963.050 C 1008.978 960.830, 1007.047 959.061, 1011.250 958.930 C 1013.383 958.863, 1013.396 958.818, 1011.500 958.062 C 1009.791 957.380, 1010.081 957.095, 1013.500 956.100 C 1032.612 950.536, 1091.437 939.991, 1120.788 936.867 C 1127.311 936.173, 1131.533 935.327, 1130.788 934.864 C 1130.080 934.424, 1127.925 934.270, 1126 934.523 C 1082.391 940.250, 1061.709 943.612, 1034.500 949.397 C 1014.754 953.595, 1009 954.438, 1009 953.132 C 1009 950.152, 1067.708 938.491, 1110.500 932.972 C 1127.436 930.788, 1131.732 930.941, 1134.340 933.823 C 1135.248 934.827, 1137.069 941.267, 1138.505 948.553 C 1142.472 968.688, 1150.054 989.681, 1157.784 1001.936 C 1170.014 1021.324, 1194.645 1036.394, 1228 1044.895 C 1234.325 1046.507, 1241.638 1048.118, 1244.250 1048.474 C 1247.415 1048.906, 1249 1049.603, 1249 1050.561 C 1249 1052.554, 1244.427 1052.383, 1233.570 1049.983 C 1207.422 1044.202, 1183.788 1033.175, 1167.442 1019.128 C 1165.759 1017.683, 1166.422 1018.464, 1168.914 1020.864 C 1184.669 1036.038, 1217.707 1049.746, 1249.750 1054.406 L 1254 1055.024 1254 1050.890 C 1254 1043.559, 1251.019 1025.796, 1247.892 1014.500 C 1242.928 996.565, 1231.517 975.068, 1222.939 967.495 C 1221.697 966.398, 1223.223 968.650, 1226.330 972.500 C 1236.062 984.556, 1245.448 1006.060, 1249.477 1025.529 C 1251.683 1036.187, 1252.653 1050, 1251.196 1050 C 1249.970 1050, 1248.014 1043.871, 1248.005 1040 C 1247.996 1036.046, 1245.200 1022.312, 1242.435 1012.643 C 1238.993 1000.603, 1230.004 982.704, 1223.168 974.277 C 1220.067 970.456, 1214.149 964.776, 1210.015 961.655 C 1201.420 955.167, 1175.994 942.225, 1165.250 938.870 C 1157.245 936.370, 1155.630 934.503, 1162.250 935.401 L 1166.500 935.977 1162.500 934.661 L 1158.500 933.344 1163 932.792 C 1168.781 932.082, 1263.206 932.655, 1268.500 933.432 C 1271.361 933.852, 1271.910 933.759, 1270.428 933.108 C 1265.915 931.122, 1234.716 929.905, 1199.920 930.356 C 1180.351 930.609, 1162.801 930.474, 1160.920 930.055 L 1157.500 929.292 1160.500 928.396 C 1164.321 927.255, 1253.865 927.217, 1264.429 928.352 C 1274.528 929.437, 1277.407 931.840, 1278.449 940.052 C 1281.137 961.220, 1290.811 989.646, 1299.543 1002.027 C 1315.733 1024.985, 1333.559 1036.260, 1367.500 1045.013 C 1373.550 1046.573, 1380.772 1048.138, 1383.548 1048.491 C 1389.414 1049.236, 1391.955 1050.468, 1390.492 1051.858 C 1389.365 1052.928, 1376.038 1051.135, 1366.391 1048.614 C 1343.510 1042.637, 1324.164 1033.039, 1309.943 1020.609 C 1307.986 1018.899, 1308.599 1019.655, 1311.305 1022.289 C 1327.530 1038.084, 1357.034 1049.970, 1391.250 1054.494 L 1396 1055.123 1396 1048.785 C 1396 1017.085, 1383.340 984.060, 1364.842 967.510 C 1362.310 965.244, 1362.501 965.607, 1365.632 969.010 C 1379.739 984.341, 1388.930 1003.857, 1392.472 1026 C 1394.195 1036.772, 1394.497 1050, 1393.019 1050 C 1391.791 1050, 1391.423 1048.153, 1389.947 1034.571 C 1387.851 1015.275, 1381.125 995.762, 1371.997 982.496 C 1363.139 969.621, 1345.512 955.796, 1326.735 946.997 C 1321.931 944.746, 1318 942.642, 1318 942.321 C 1318 941.717, 1323.002 942.374, 1326.500 943.438 C 1327.600 943.772, 1326.700 943.169, 1324.500 942.097 C 1319.646 939.732, 1321.656 939.523, 1331.303 941.390 C 1335.045 942.114, 1337.745 942.348, 1337.303 941.909 C 1336.861 941.470, 1334.925 940.836, 1333 940.500 C 1331.075 940.165, 1327.700 939.510, 1325.500 939.045 C 1323.300 938.580, 1318.800 937.896, 1315.500 937.525 C 1312.200 937.153, 1305.224 935.779, 1299.998 934.470 C 1263.212 925.259, 1216.231 917.755, 1178 914.984 C 1169.475 914.367, 1160.931 913.627, 1159.013 913.341 C 1155.733 912.851, 1155.640 912.736, 1157.454 911.410 C 1159.301 910.059, 1159.304 910, 1157.521 910 C 1156.498 910, 1159.674 907.969, 1164.580 905.487 C 1177.600 898.899, 1181.672 896.423, 1191.500 889.122 C 1198.118 884.205, 1214 868.390, 1214 866.717 C 1214 866.134, 1214.617 864.947, 1215.370 864.079 C 1222.967 855.327, 1229.392 831.475, 1230.386 808.332 C 1230.927 795.734, 1230.342 798.321, 1228.053 818.648 C 1224.950 846.206, 1215.157 866.511, 1197.891 881.186 C 1184.018 892.979, 1164.866 904.501, 1157.652 905.396 C 1155.643 905.645, 1154 905.641, 1154 905.386 C 1154 905.131, 1157.037 903.458, 1160.750 901.669 C 1164.463 899.880, 1168.850 897.580, 1170.500 896.558 C 1196.634 880.371, 1209.738 867.010, 1217.015 849.128 C 1220.906 839.567, 1222.753 831.565, 1224.909 814.940 C 1226.782 800.492, 1226.828 797.881, 1225.530 780.116 C 1224.831 770.543, 1224.921 768.806, 1226.099 769.191 C 1227.009 769.489, 1227.779 772.078, 1228.296 776.575 C 1228.734 780.384, 1229.498 785.750, 1229.994 788.500 C 1230.727 792.564, 1230.803 791.815, 1230.401 784.500 C 1229.455 767.281, 1228.978 764.858, 1226.606 765.223 C 1225.448 765.401, 1224.591 766.035, 1224.702 766.630 C 1224.928 767.842, 1224.960 767.824, 1209 775.284 C 1197.259 780.772, 1182.960 790.117, 1175.127 797.422 C 1163.721 808.060, 1152.584 825.727, 1148.137 840.238 C 1143.607 855.023, 1142.381 875.454, 1144.487 901.106 C 1145.069 908.198, 1144.963 910.905, 1144.082 911.449 C 1143.426 911.855, 1127.277 912.323, 1108.195 912.489 C 1068.948 912.832, 1027.156 915.276, 1002.320 918.680 C 999.415 919.078, 998 918.900, 998 918.136 C 998 917.511, 998.563 916.993, 999.250 916.985 C 1000.221 916.973, 1000.213 916.787, 999.213 916.153 C 998.324 915.589, 999.251 914.762, 1002.213 913.477 C 1008.326 910.826, 1019.995 904.338, 1029 898.584 C 1043.659 889.217, 1056.321 875.809, 1062.666 862.936 C 1071.730 844.546, 1075.948 816.638, 1073.963 788.198 C 1072.775 771.176, 1072.516 770, 1069.966 770 C 1068.106 770, 1068.106 770.067, 1069.941 773.250 C 1071.330 775.660, 1072.025 779.730, 1072.629 789 C 1073.076 795.875, 1073.382 802.132, 1073.307 802.904 C 1073.232 803.676, 1072.669 810.336, 1072.055 817.703 C 1070.769 833.152, 1066.540 851.006, 1062.071 859.859 C 1053.361 877.114, 1037.199 892.310, 1013.609 905.424 C 1007.028 909.083, 996.987 912.553, 997.012 911.159 C 997.019 910.797, 1001.181 908.303, 1006.262 905.618 C 1015.565 900.701, 1031.061 890.664, 1038.535 884.713 C 1046.484 878.384, 1056.316 864.940, 1060.284 854.978 C 1066.104 840.363, 1068.793 825.815, 1069.243 806.500 C 1069.554 793.172, 1068.709 771.488, 1067.961 773.615 C 1067.664 774.458, 1066.989 775.134, 1066.461 775.118 C 1058.675 774.872, 1031.584 790.702, 1018.470 803.158 C 999.761 820.930, 990.705 839.793, 987.505 867.655 C 986.205 878.975, 986.114 883.524, 987.012 892.506 C 987.616 898.553, 988.369 906.909, 988.686 911.074 L 989.262 918.649 986.381 919.807 C 984.796 920.445, 975.850 922.106, 966.500 923.500 C 936.567 927.961, 895.832 935.755, 869.684 942.024 C 865.183 943.103, 860.788 943.989, 859.917 943.993 C 856.395 944.009, 858.724 941.016, 865.417 936.926 C 879.918 928.066, 890.052 919.529, 897.591 909.826 C 900.016 906.705, 902 903.925, 902 903.648 C 902 903.370, 903.542 900.524, 905.427 897.322 C 909.045 891.174, 914.387 874.875, 915.514 866.545 C 916.184 861.592, 916.197 861.577, 950.348 827.934 C 982.701 796.062, 1024.993 752.460, 1053.583 721.500 C 1218.413 543.009, 1332.587 374.001, 1393.647 218.116 C 1400.332 201.049, 1401.627 195.724, 1396.069 208.154 M 1381.907 229.348 C 1381.031 230.532, 1371.850 243.875, 1361.505 259 C 1310.103 334.152, 1259.866 400.695, 1204.542 466.912 C 1197.919 474.839, 1191.165 482.939, 1189.533 484.912 C 1186.146 489.007, 1158.066 521.923, 1156.519 523.612 C 1155.959 524.224, 1153.040 527.552, 1150.034 531.007 C 1147.027 534.463, 1144.102 537.792, 1143.534 538.405 C 1142.965 539.019, 1139.831 542.666, 1136.569 546.510 C 1133.307 550.355, 1130.157 553.950, 1129.569 554.500 C 1128.981 555.050, 1124.707 559.775, 1120.071 565 C 1110.785 575.465, 1102.526 584.476, 1071.493 618 C 1032.494 660.130, 988.589 705.205, 933.037 760.147 C 902.532 790.316, 878.066 815, 878.666 815 C 880.997 815, 898.481 798.347, 949.626 747.410 C 1014.038 683.260, 1050.624 645.351, 1090.443 601.500 C 1096.436 594.900, 1104.319 586.350, 1107.961 582.500 C 1120.254 569.503, 1159.060 525.257, 1182.500 497.510 C 1188 491, 1195.218 482.484, 1198.540 478.587 C 1219.924 453.495, 1261.840 400.622, 1290.570 362.500 C 1333.086 306.084, 1385.958 229.541, 1383.820 227.501 C 1383.644 227.333, 1382.783 228.164, 1381.907 229.348 M 790.612 278.250 C 790.319 281.137, 789.823 287.775, 789.509 293 C 785.528 359.344, 762.942 449.321, 734.033 514 C 727.217 529.250, 721.185 540.395, 713.282 552.340 L 706.772 562.180 703.837 579.340 C 699.939 602.135, 696.619 618.032, 693.534 628.672 C 690.877 637.836, 690.379 641.502, 691.919 640.550 C 693.518 639.562, 700.605 606.943, 705.472 578.171 L 708.065 562.843 713.399 555.171 C 727.478 534.921, 741.084 505.338, 754.639 465.500 C 775.559 404.017, 787.936 343.054, 791.539 283.750 C 792.210 272.709, 791.563 268.869, 790.612 278.250 M 995.402 413.842 C 996.460 415.554, 980.041 443.074, 970.547 455.500 C 942.115 492.717, 912.704 521.351, 867.503 555.825 C 849.358 569.664, 850.516 568.837, 829 583.333 C 780.995 615.675, 729.353 642.692, 699.500 651.081 C 691.137 653.431, 686.727 655.761, 693 654.516 C 712.738 650.596, 755.870 630.519, 795.259 606.917 C 874.575 559.391, 941.483 501.102, 978.250 447.500 C 985.270 437.266, 998 415.527, 998 413.773 C 998 413.348, 997.298 413, 996.441 413 C 995.584 413, 995.116 413.379, 995.402 413.842 M 645.052 452.583 C 645.169 454.635, 655.854 494.386, 655.916 493 C 655.995 491.239, 646.193 452.860, 645.483 452.149 C 645.217 451.884, 645.023 452.079, 645.052 452.583 M 656.005 495.583 C 656.008 496.087, 657.107 501.675, 658.447 508 C 664.878 538.345, 671.467 587.517, 670.393 597.154 C 669.787 602.594, 670.358 605.515, 671.846 604.595 C 673.594 603.515, 669.850 567.350, 664.914 537.638 C 660.911 513.549, 655.975 490.246, 656.005 495.583 M 931.644 646.898 C 918.173 668.722, 889.578 695.116, 853 719.487 C 794.478 758.479, 712.116 792.514, 652.059 802.523 C 643.697 803.917, 640.103 804.824, 642.683 804.891 C 653.782 805.179, 689.693 796.507, 718.782 786.514 C 806.353 756.430, 885.327 707.926, 923.959 660.500 C 930.022 653.058, 937 643.031, 937 641.763 C 937 639.608, 934.902 641.619, 931.644 646.898 M 687.537 656.750 C 687.164 657.712, 683.998 668.400, 680.501 680.500 C 672.511 708.144, 657.271 752.991, 650.872 767.694 C 648.192 773.850, 646 779.459, 646 780.158 C 646 791.734, 679.477 695.043, 688.382 657.750 C 689.115 654.680, 688.582 654.049, 687.537 656.750 M 597.481 707.500 C 597.747 709.150, 599.741 719.207, 601.913 729.849 C 604.084 740.491, 605.619 749.829, 605.323 750.601 C 604.617 752.441, 605.781 757, 606.956 757 C 607.461 757, 607.637 755.313, 607.348 753.250 C 606.438 746.771, 599.060 710.643, 598.005 707.500 L 596.998 704.500 597.481 707.500 M 1350.298 772.967 C 1350.016 774.049, 1348.820 775.230, 1347.642 775.592 C 1346.464 775.954, 1341 778.389, 1335.500 781.003 C 1296.591 799.497, 1274.705 827.712, 1269.947 865.513 C 1267.913 881.677, 1269.727 911.477, 1272.864 913.416 C 1274.181 914.230, 1296.895 902.671, 1306.624 896.237 C 1333.016 878.782, 1345.633 858.587, 1349.883 827 C 1351.642 813.928, 1352.137 799.838, 1351.219 789 C 1350.390 779.215, 1351.076 772.742, 1352.762 774.429 C 1353.150 774.817, 1353.995 781.067, 1354.640 788.317 C 1356.075 804.464, 1354.360 827.382, 1350.610 842.163 C 1342.977 872.256, 1325.104 891.860, 1288.688 910.087 C 1275.334 916.770, 1271.084 918.291, 1272.595 915.845 C 1273.047 915.115, 1272.869 914.963, 1272.111 915.432 C 1271.452 915.839, 1270.288 915.654, 1269.525 915.021 C 1268.374 914.066, 1268.271 914.349, 1268.916 916.685 C 1269.544 918.955, 1270.213 919.463, 1272.375 919.308 C 1276.333 919.024, 1308.046 903.007, 1308.833 900.894 C 1309.017 900.403, 1309.631 900, 1310.199 900 C 1311.544 900, 1323.160 890.935, 1329.318 885.081 C 1346.909 868.354, 1355.939 842.084, 1356.326 806.500 C 1356.422 797.700, 1356.121 786.112, 1355.657 780.750 C 1354.895 771.947, 1354.619 771, 1352.813 771 C 1351.665 771, 1350.594 771.838, 1350.298 772.967 M 836.334 853.250 C 828.949 859.694, 791.396 893.926, 783.952 901 C 782.505 902.375, 778.214 906.200, 774.417 909.500 C 770.621 912.800, 764.801 917.975, 761.486 921 C 758.170 924.025, 752.108 929.425, 748.015 933 C 743.922 936.575, 738.082 941.778, 735.037 944.561 C 731.991 947.345, 727.876 950.945, 725.891 952.561 C 717.844 959.114, 681.405 990.782, 680.128 992.333 C 679.373 993.250, 679.094 994, 679.508 994 C 681.717 994, 699.669 979.142, 738 945.592 C 767.583 919.699, 831.749 861.226, 837 855.376 C 845.030 846.430, 844.841 845.827, 836.334 853.250 M 514.478 908 C 514.885 916.233, 514.845 916, 515.834 916 C 516.293 916, 516.289 913.188, 515.824 909.750 C 514.646 901.035, 514.099 900.324, 514.478 908 M 823.587 947.657 C 819.149 951.689, 818.946 952.052, 821.486 951.414 C 823.484 950.913, 824.093 951.040, 823.590 951.854 C 822.647 953.381, 823.522 953.298, 826.923 951.540 C 829.464 950.226, 831.631 946.298, 830.460 945.127 C 830.207 944.874, 829.955 945.304, 829.900 946.083 C 829.845 946.862, 829.508 946.531, 829.150 945.347 C 828.536 943.315, 828.225 943.444, 823.587 947.657 M 828.849 1011.484 C 826.840 1012.223, 822.196 1014.216, 818.529 1015.914 C 814.861 1017.611, 811.670 1019, 811.437 1019 C 810.882 1019, 794.052 1026.591, 781.956 1032.298 C 766.496 1039.591, 717.563 1064.103, 717.009 1064.831 C 716.729 1065.199, 711.835 1067.864, 706.134 1070.753 C 698.067 1074.842, 671.863 1089.507, 661 1096.013 C 619.076 1121.122, 599.720 1134.139, 598.741 1137.881 C 598.400 1139.185, 604.307 1135.810, 617.535 1127.141 C 648.387 1106.924, 662.716 1098.251, 694.801 1080.375 C 705.967 1074.154, 716.265 1068.150, 717.686 1067.032 C 719.107 1065.915, 720.856 1065, 721.573 1065 C 722.290 1065, 735.392 1058.764, 750.688 1051.143 C 765.985 1043.522, 789.300 1032.485, 802.500 1026.617 C 815.700 1020.750, 829.200 1014.638, 832.500 1013.035 C 837.780 1010.470, 838.140 1010.121, 835.500 1010.130 C 833.850 1010.136, 830.857 1010.745, 828.849 1011.484 M 940.012 1051.857 C 950.312 1067.256, 956.673 1087.283, 957.713 1107.595 C 958.268 1118.427, 958.226 1118.728, 955.918 1120.345 C 952.895 1122.462, 949.608 1122.414, 938.500 1120.093 C 924.011 1117.064, 923.270 1116.954, 928 1118.535 C 932.316 1119.977, 948.231 1123.254, 956.401 1124.384 L 960.301 1124.923 959.682 1113.212 C 958.789 1096.322, 954.951 1079.129, 949.034 1065.511 C 946.819 1060.413, 936.684 1044.541, 934.966 1043.479 C 934.443 1043.156, 936.714 1046.926, 940.012 1051.857 M 722.839 1073.718 C 723.359 1074.698, 724.301 1078.875, 724.933 1083 C 728.473 1106.114, 736.788 1129.705, 746.661 1144.652 C 750.857 1151.004, 762.964 1162.948, 770.032 1167.707 C 782.189 1175.894, 807.062 1185.240, 824 1187.986 C 833.015 1189.447, 837.191 1190.881, 836.358 1192.231 C 835.046 1194.352, 813.248 1190.102, 797.500 1184.656 C 785.833 1180.620, 769.878 1172.406, 763 1166.893 C 759.425 1164.028, 757.400 1162.708, 758.500 1163.961 C 764.364 1170.636, 782.098 1180.584, 797.500 1185.838 C 809.475 1189.923, 829.181 1194.480, 838 1195.202 L 841.500 1195.489 841.245 1190.495 C 839.661 1159.409, 827.789 1126.462, 812.399 1110.441 C 810.255 1108.209, 809.447 1107.534, 810.605 1108.941 C 823.253 1124.319, 830.836 1140.339, 835.956 1162.500 C 838.653 1174.175, 840.311 1188.089, 839.143 1189.257 C 837.316 1191.084, 836.281 1189.049, 835.597 1182.278 C 833.105 1157.642, 823.748 1131.918, 811.479 1115.973 C 798.036 1098.503, 767.108 1081.800, 735.500 1074.940 C 730.550 1073.866, 725.464 1072.750, 724.198 1072.461 C 722.240 1072.014, 722.037 1072.203, 722.839 1073.718 M 880.942 1096.850 C 882.899 1098.693, 887.875 1102.188, 892 1104.618 C 899.709 1109.159, 918.766 1117.043, 921.798 1116.945 C 922.734 1116.915, 920.350 1115.766, 916.500 1114.392 C 902.128 1109.261, 887.809 1101.823, 879.442 1095.143 C 878.310 1094.239, 878.985 1095.008, 880.942 1096.850 M 514.800 1226.250 C 471.713 1269.287, 425.010 1316.200, 411.017 1330.500 C 397.023 1344.800, 432.470 1309.701, 489.787 1252.502 C 547.104 1195.303, 594 1148.390, 594 1148.252 C 594 1147.270, 584.811 1156.320, 514.800 1226.250 M 371.671 1368.950 C 365.289 1375.523, 357.713 1382.761, 354.835 1385.036 C 345.889 1392.108, 334.359 1397.071, 322.464 1398.971 L 316.500 1399.924 322.651 1399.488 C 330.246 1398.949, 342.810 1394.462, 350.502 1389.542 C 356.515 1385.695, 386.344 1357.073, 384.388 1357.027 C 383.776 1357.012, 378.054 1362.378, 371.671 1368.950" stroke="none" fill="#24732b" fill-rule="evenodd"/><path d="M 785.006 201.583 C 785.009 202.637, 785.431 205.075, 785.945 207 C 787.148 211.510, 789.710 232.709, 790.573 245.294 C 790.942 250.681, 791.464 254.869, 791.733 254.600 C 792.607 253.726, 789.989 224.565, 787.948 212.442 C 786.066 201.262, 784.993 197.302, 785.006 201.583 M 1396.069 208.154 C 1394.298 212.114, 1391.737 218.312, 1390.377 221.927 C 1375.651 261.074, 1346.603 320.267, 1316.977 371.500 C 1275.243 443.672, 1221.709 520.229, 1158.593 598 C 1135.154 626.880, 1093.025 676.422, 1087.145 682.017 C 1085.690 683.402, 1083.452 685.877, 1082.170 687.517 C 1079.937 690.376, 1069.229 702.276, 1058.365 713.972 C 1055.541 717.012, 1050.141 722.870, 1046.365 726.989 C 1039.802 734.149, 1033.324 741.026, 1010.090 765.500 C 1004.346 771.550, 980.443 795.636, 956.971 819.024 L 914.295 861.547 913.588 866.524 C 911.159 883.616, 903.202 900.490, 891.140 914.126 C 883.199 923.103, 861.196 937.925, 857.631 936.698 C 857.009 936.484, 860.348 933.820, 865.051 930.777 C 891.529 913.647, 904.577 895.281, 910.003 867.500 C 910.647 864.200, 912.373 859.736, 913.837 857.580 C 916.413 853.789, 916.499 853.201, 916.474 839.580 C 916.460 831.836, 916.076 820.608, 915.620 814.628 L 914.791 803.757 910.430 804.355 C 900.100 805.770, 869.887 822.624, 858.183 833.500 C 842.514 848.060, 831.032 871.056, 827.442 895.069 C 825.813 905.960, 825.397 922.322, 826.519 931.304 C 827.531 939.405, 825.914 943.245, 819.428 948.142 C 814.708 951.706, 810.955 953.140, 789.395 959.622 C 755.987 969.665, 737.693 975.720, 710.500 985.734 C 697.850 990.392, 684.189 995.263, 680.142 996.558 C 676.094 997.853, 671.759 999.583, 670.508 1000.403 C 669.257 1001.223, 660.193 1005.250, 650.366 1009.353 C 620.445 1021.845, 600.286 1030.794, 596.059 1033.463 C 593.848 1034.858, 591.832 1036, 591.577 1036 C 590.679 1036, 591.995 1031.502, 592.990 1031.170 C 593.546 1030.985, 594 1030.432, 594 1029.941 C 594 1029.450, 596.838 1024.650, 600.306 1019.274 C 621.559 986.331, 652.476 930.440, 671.402 890.750 C 675.533 882.087, 678.547 875, 678.101 875 C 677.655 875, 674.528 877.669, 671.152 880.932 C 664.749 887.119, 662.068 889.035, 627.259 912.302 C 591.180 936.417, 571.683 948.446, 571.153 946.917 C 570.936 946.293, 570.268 946.362, 569.379 947.101 C 568.594 947.752, 567.777 948.108, 567.563 947.893 C 567.349 947.677, 572.553 937.825, 579.128 926 C 600.392 887.756, 641.562 801.799, 636.670 805.859 C 635.914 806.486, 632.895 812.512, 629.961 819.250 C 613.898 856.136, 584.685 914.279, 569.040 940.500 C 566.414 944.900, 561.659 953, 558.472 958.500 C 549.061 974.742, 540.534 988.267, 526.319 1009.500 C 505.237 1040.989, 504.712 1041.681, 502.061 1041.486 C 500.480 1041.370, 493.354 1034.892, 479.866 1021.311 C 468.940 1010.310, 459.944 1001.689, 459.875 1002.154 C 459.806 1002.619, 459.694 1003.597, 459.625 1004.327 C 459.468 1005.991, 518.124 1066.041, 519.235 1065.355 C 519.683 1065.078, 519.926 1065.447, 519.775 1066.176 C 519.623 1066.909, 520.170 1067.351, 521 1067.167 C 521.825 1066.983, 522.156 1067.177, 521.736 1067.597 C 520.913 1068.420, 525.765 1074, 527.304 1074 C 527.815 1074, 530.707 1076.695, 533.730 1079.989 C 536.753 1083.283, 539.695 1085.689, 540.268 1085.335 C 540.840 1084.981, 541.038 1085.129, 540.707 1085.665 C 539.923 1086.934, 561.356 1108.311, 562.383 1107.283 C 562.814 1106.853, 563.017 1107.175, 562.833 1108 C 562.649 1108.830, 563.091 1109.377, 563.824 1109.225 C 564.553 1109.074, 564.901 1109.351, 564.598 1109.842 C 563.852 1111.049, 567.448 1114.199, 568.491 1113.252 C 568.948 1112.838, 569.034 1113.002, 568.684 1113.616 C 567.950 1114.902, 571.324 1118.343, 572.331 1117.336 C 572.699 1116.968, 573 1117.245, 573 1117.951 C 573 1119.512, 580.961 1127.601, 582.152 1127.250 C 582.618 1127.112, 582.888 1127.394, 582.750 1127.875 C 582.613 1128.357, 585.953 1132.355, 590.173 1136.761 L 597.845 1144.771 600.477 1142.024 C 601.924 1140.514, 610.171 1134.558, 618.804 1128.789 C 635.297 1117.767, 637.609 1116.315, 658.500 1103.849 C 665.650 1099.583, 672.044 1095.622, 672.708 1095.046 C 673.372 1094.471, 674.296 1094, 674.762 1094 C 675.228 1094, 677.609 1092.733, 680.054 1091.185 C 692.703 1083.177, 719.329 1069.486, 719.757 1070.770 C 720.033 1071.598, 720.816 1071.585, 722.716 1070.720 C 725.291 1069.547, 725.292 1069.541, 723.042 1069.010 C 721.343 1068.609, 728.417 1064.684, 751.643 1053.139 C 768.614 1044.703, 785.200 1036.566, 788.500 1035.058 C 791.800 1033.550, 797.105 1031.098, 800.288 1029.609 C 817.345 1021.630, 839.048 1012.912, 840.153 1013.594 C 840.619 1013.882, 841 1013.326, 841 1012.359 C 841 1008.227, 842.912 1013.165, 844.926 1022.500 C 853.427 1061.886, 867.849 1084.943, 893.606 1100.324 C 905.808 1107.610, 927.738 1114.954, 947.500 1118.372 C 951.900 1119.133, 955.547 1119.698, 955.604 1119.628 C 956.013 1119.125, 953.705 1099.985, 952.454 1093.500 C 944.468 1052.101, 921.087 1027.047, 875.079 1010.586 C 868.798 1008.339, 863.466 1005.918, 863.231 1005.206 C 862.942 1004.329, 863.559 1004.041, 865.152 1004.311 C 866.443 1004.529, 866.938 1004.516, 866.250 1004.281 C 863.681 1003.402, 865.279 1002.401, 875.258 998.636 C 911.056 985.132, 955.495 970.569, 974.700 966.048 C 977.561 965.375, 980.399 964.224, 981.008 963.491 C 982.417 961.793, 982.103 961.865, 960.500 968.193 C 937.990 974.787, 914.099 982.592, 888.809 991.617 C 869.296 998.579, 859.526 1001.021, 864.527 997.684 C 871.756 992.861, 952.318 965.931, 973.885 961.128 C 982.061 959.308, 983.004 960.522, 987 978 C 993.181 1005.032, 1002.414 1024.555, 1014.932 1037.063 C 1029.787 1051.906, 1059.295 1065.933, 1084.190 1069.987 C 1092.551 1071.349, 1096 1072.515, 1096 1073.979 C 1096 1075.620, 1090.638 1075.172, 1079.190 1072.574 C 1052.855 1066.597, 1031.047 1055.993, 1012.436 1040.114 C 1010.751 1038.676, 1011.651 1039.683, 1014.436 1042.350 C 1025.004 1052.472, 1045.102 1063.843, 1061.500 1068.978 C 1070.721 1071.865, 1086.243 1075.603, 1092.500 1076.443 C 1095.250 1076.812, 1098.352 1077.364, 1099.394 1077.670 C 1101.206 1078.202, 1101.264 1077.628, 1100.742 1064.363 C 1099.613 1035.640, 1090.132 1010.757, 1073.895 993.899 C 1070.928 990.819, 1070.090 990.144, 1072.034 992.399 C 1085.999 1008.604, 1093.442 1024.126, 1097.555 1045.626 C 1099.142 1053.919, 1099.527 1073, 1098.107 1073 C 1096.665 1073, 1096 1070.221, 1095.996 1064.168 C 1095.987 1051.085, 1090.613 1029.099, 1084.423 1016.820 C 1080.153 1008.351, 1072.137 997.325, 1066.505 992.178 C 1054.260 980.987, 1032.676 968.600, 1015.750 963.050 C 1008.978 960.830, 1007.047 959.061, 1011.250 958.930 C 1013.383 958.863, 1013.396 958.818, 1011.500 958.062 C 1009.791 957.380, 1010.081 957.095, 1013.500 956.100 C 1032.612 950.536, 1091.437 939.991, 1120.788 936.867 C 1127.311 936.173, 1131.533 935.327, 1130.788 934.864 C 1130.080 934.424, 1127.925 934.270, 1126 934.523 C 1082.391 940.250, 1061.709 943.612, 1034.500 949.397 C 1014.754 953.595, 1009 954.438, 1009 953.132 C 1009 950.152, 1067.708 938.491, 1110.500 932.972 C 1127.436 930.788, 1131.732 930.941, 1134.340 933.823 C 1135.248 934.827, 1137.069 941.267, 1138.505 948.553 C 1142.472 968.688, 1150.054 989.681, 1157.784 1001.936 C 1170.014 1021.324, 1194.645 1036.394, 1228 1044.895 C 1234.325 1046.507, 1241.638 1048.118, 1244.250 1048.474 C 1247.415 1048.906, 1249 1049.603, 1249 1050.561 C 1249 1052.554, 1244.427 1052.383, 1233.570 1049.983 C 1207.422 1044.202, 1183.788 1033.175, 1167.442 1019.128 C 1165.759 1017.683, 1166.422 1018.464, 1168.914 1020.864 C 1184.669 1036.038, 1217.707 1049.746, 1249.750 1054.406 L 1254 1055.024 1254 1050.890 C 1254 1043.559, 1251.019 1025.796, 1247.892 1014.500 C 1242.928 996.565, 1231.517 975.068, 1222.939 967.495 C 1221.697 966.398, 1223.223 968.650, 1226.330 972.500 C 1236.062 984.556, 1245.448 1006.060, 1249.477 1025.529 C 1251.683 1036.187, 1252.653 1050, 1251.196 1050 C 1249.970 1050, 1248.014 1043.871, 1248.005 1040 C 1247.996 1036.046, 1245.200 1022.312, 1242.435 1012.643 C 1238.993 1000.603, 1230.004 982.704, 1223.168 974.277 C 1220.067 970.456, 1214.149 964.776, 1210.015 961.655 C 1201.420 955.167, 1175.994 942.225, 1165.250 938.870 C 1157.245 936.370, 1155.630 934.503, 1162.250 935.401 L 1166.500 935.977 1162.500 934.661 L 1158.500 933.344 1163 932.792 C 1168.781 932.082, 1263.206 932.655, 1268.500 933.432 C 1271.361 933.852, 1271.910 933.759, 1270.428 933.108 C 1265.915 931.122, 1234.716 929.905, 1199.920 930.356 C 1180.351 930.609, 1162.801 930.474, 1160.920 930.055 L 1157.500 929.292 1160.500 928.396 C 1164.321 927.255, 1253.865 927.217, 1264.429 928.352 C 1274.528 929.437, 1277.407 931.840, 1278.449 940.052 C 1281.137 961.220, 1290.811 989.646, 1299.543 1002.027 C 1315.733 1024.985, 1333.559 1036.260, 1367.500 1045.013 C 1373.550 1046.573, 1380.772 1048.138, 1383.548 1048.491 C 1389.414 1049.236, 1391.955 1050.468, 1390.492 1051.858 C 1389.365 1052.928, 1376.038 1051.135, 1366.391 1048.614 C 1343.510 1042.637, 1324.164 1033.039, 1309.943 1020.609 C 1307.986 1018.899, 1308.599 1019.655, 1311.305 1022.289 C 1327.530 1038.084, 1357.034 1049.970, 1391.250 1054.494 L 1396 1055.123 1396 1048.785 C 1396 1017.085, 1383.340 984.060, 1364.842 967.510 C 1362.310 965.244, 1362.501 965.607, 1365.632 969.010 C 1379.739 984.341, 1388.930 1003.857, 1392.472 1026 C 1394.195 1036.772, 1394.497 1050, 1393.019 1050 C 1391.791 1050, 1391.423 1048.153, 1389.947 1034.571 C 1387.851 1015.275, 1381.125 995.762, 1371.997 982.496 C 1363.139 969.621, 1345.512 955.796, 1326.735 946.997 C 1321.931 944.746, 1318 942.642, 1318 942.321 C 1318 941.717, 1323.002 942.374, 1326.500 943.438 C 1327.600 943.772, 1326.700 943.169, 1324.500 942.097 C 1319.646 939.732, 1321.656 939.523, 1331.303 941.390 C 1335.045 942.114, 1337.745 942.348, 1337.303 941.909 C 1336.861 941.470, 1334.925 940.836, 1333 940.500 C 1331.075 940.165, 1327.700 939.510, 1325.500 939.045 C 1323.300 938.580, 1318.800 937.896, 1315.500 937.525 C 1312.200 937.153, 1305.224 935.779, 1299.998 934.470 C 1263.212 925.259, 1216.231 917.755, 1178 914.984 C 1169.475 914.367, 1160.931 913.627, 1159.013 913.341 C 1155.733 912.851, 1155.640 912.736, 1157.454 911.410 C 1159.301 910.059, 1159.304 910, 1157.521 910 C 1156.498 910, 1159.674 907.969, 1164.580 905.487 C 1177.600 898.899, 1181.672 896.423, 1191.500 889.122 C 1198.118 884.205, 1214 868.390, 1214 866.717 C 1214 866.134, 1214.617 864.947, 1215.370 864.079 C 1222.967 855.327, 1229.392 831.475, 1230.386 808.332 C 1230.927 795.734, 1230.342 798.321, 1228.053 818.648 C 1224.950 846.206, 1215.157 866.511, 1197.891 881.186 C 1184.018 892.979, 1164.866 904.501, 1157.652 905.396 C 1155.643 905.645, 1154 905.641, 1154 905.386 C 1154 905.131, 1157.037 903.458, 1160.750 901.669 C 1164.463 899.880, 1168.850 897.580, 1170.500 896.558 C 1196.634 880.371, 1209.738 867.010, 1217.015 849.128 C 1220.906 839.567, 1222.753 831.565, 1224.909 814.940 C 1226.782 800.492, 1226.828 797.881, 1225.530 780.116 C 1224.831 770.543, 1224.921 768.806, 1226.099 769.191 C 1227.009 769.489, 1227.779 772.078, 1228.296 776.575 C 1228.734 780.384, 1229.498 785.750, 1229.994 788.500 C 1230.727 792.564, 1230.803 791.815, 1230.401 784.500 C 1229.455 767.281, 1228.978 764.858, 1226.606 765.223 C 1225.448 765.401, 1224.591 766.035, 1224.702 766.630 C 1224.928 767.842, 1224.960 767.824, 1209 775.284 C 1197.259 780.772, 1182.960 790.117, 1175.127 797.422 C 1163.721 808.060, 1152.584 825.727, 1148.137 840.238 C 1143.607 855.023, 1142.381 875.454, 1144.487 901.106 C 1145.069 908.198, 1144.963 910.905, 1144.082 911.449 C 1143.426 911.855, 1127.277 912.323, 1108.195 912.489 C 1068.948 912.832, 1027.156 915.276, 1002.320 918.680 C 999.415 919.078, 998 918.900, 998 918.136 C 998 917.511, 998.563 916.993, 999.250 916.985 C 1000.221 916.973, 1000.213 916.787, 999.213 916.153 C 998.324 915.589, 999.251 914.762, 1002.213 913.477 C 1008.326 910.826, 1019.995 904.338, 1029 898.584 C 1043.659 889.217, 1056.321 875.809, 1062.666 862.936 C 1071.730 844.546, 1075.948 816.638, 1073.963 788.198 C 1072.775 771.176, 1072.516 770, 1069.966 770 C 1068.106 770, 1068.106 770.067, 1069.941 773.250 C 1071.330 775.660, 1072.025 779.730, 1072.629 789 C 1073.076 795.875, 1073.382 802.132, 1073.307 802.904 C 1073.232 803.676, 1072.669 810.336, 1072.055 817.703 C 1070.769 833.152, 1066.540 851.006, 1062.071 859.859 C 1053.361 877.114, 1037.199 892.310, 1013.609 905.424 C 1007.028 909.083, 996.987 912.553, 997.012 911.159 C 997.019 910.797, 1001.181 908.303, 1006.262 905.618 C 1015.565 900.701, 1031.061 890.664, 1038.535 884.713 C 1046.484 878.384, 1056.316 864.940, 1060.284 854.978 C 1066.104 840.363, 1068.793 825.815, 1069.243 806.500 C 1069.554 793.172, 1068.709 771.488, 1067.961 773.615 C 1067.664 774.458, 1066.989 775.134, 1066.461 775.118 C 1058.675 774.872, 1031.584 790.702, 1018.470 803.158 C 999.761 820.930, 990.705 839.793, 987.505 867.655 C 986.205 878.975, 986.114 883.524, 987.012 892.506 C 987.616 898.553, 988.369 906.909, 988.686 911.074 L 989.262 918.649 986.381 919.807 C 984.796 920.445, 975.850 922.106, 966.500 923.500 C 936.567 927.961, 895.832 935.755, 869.684 942.024 C 865.183 943.103, 860.788 943.989, 859.917 943.993 C 856.395 944.009, 858.724 941.016, 865.417 936.926 C 879.918 928.066, 890.052 919.529, 897.591 909.826 C 900.016 906.705, 902 903.925, 902 903.648 C 902 903.370, 903.542 900.524, 905.427 897.322 C 909.045 891.174, 914.387 874.875, 915.514 866.545 C 916.184 861.592, 916.197 861.577, 950.348 827.934 C 982.701 796.062, 1024.993 752.460, 1053.583 721.500 C 1218.413 543.009, 1332.587 374.001, 1393.647 218.116 C 1400.332 201.049, 1401.627 195.724, 1396.069 208.154 M 1381.907 229.348 C 1381.031 230.532, 1371.850 243.875, 1361.505 259 C 1310.103 334.152, 1259.866 400.695, 1204.542 466.912 C 1197.919 474.839, 1191.165 482.939, 1189.533 484.912 C 1186.146 489.007, 1158.066 521.923, 1156.519 523.612 C 1155.959 524.224, 1153.040 527.552, 1150.034 531.007 C 1147.027 534.463, 1144.102 537.792, 1143.534 538.405 C 1142.965 539.019, 1139.831 542.666, 1136.569 546.510 C 1133.307 550.355, 1130.157 553.950, 1129.569 554.500 C 1128.981 555.050, 1124.707 559.775, 1120.071 565 C 1110.785 575.465, 1102.526 584.476, 1071.493 618 C 1032.494 660.130, 988.589 705.205, 933.037 760.147 C 902.532 790.316, 878.066 815, 878.666 815 C 880.997 815, 898.481 798.347, 949.626 747.410 C 1014.038 683.260, 1050.624 645.351, 1090.443 601.500 C 1096.436 594.900, 1104.319 586.350, 1107.961 582.500 C 1120.254 569.503, 1159.060 525.257, 1182.500 497.510 C 1188 491, 1195.218 482.484, 1198.540 478.587 C 1219.924 453.495, 1261.840 400.622, 1290.570 362.500 C 1333.086 306.084, 1385.958 229.541, 1383.820 227.501 C 1383.644 227.333, 1382.783 228.164, 1381.907 229.348 M 790.612 278.250 C 790.319 281.137, 789.823 287.775, 789.509 293 C 785.528 359.344, 762.942 449.321, 734.033 514 C 727.217 529.250, 721.185 540.395, 713.282 552.340 L 706.772 562.180 703.837 579.340 C 699.939 602.135, 696.619 618.032, 693.534 628.672 C 690.877 637.836, 690.379 641.502, 691.919 640.550 C 693.518 639.562, 700.605 606.943, 705.472 578.171 L 708.065 562.843 713.399 555.171 C 727.478 534.921, 741.084 505.338, 754.639 465.500 C 775.559 404.017, 787.936 343.054, 791.539 283.750 C 792.210 272.709, 791.563 268.869, 790.612 278.250 M 995.402 413.842 C 996.460 415.554, 980.041 443.074, 970.547 455.500 C 942.115 492.717, 912.704 521.351, 867.503 555.825 C 849.358 569.664, 850.516 568.837, 829 583.333 C 780.995 615.675, 729.353 642.692, 699.500 651.081 C 691.137 653.431, 686.727 655.761, 693 654.516 C 712.738 650.596, 755.870 630.519, 795.259 606.917 C 874.575 559.391, 941.483 501.102, 978.250 447.500 C 985.270 437.266, 998 415.527, 998 413.773 C 998 413.348, 997.298 413, 996.441 413 C 995.584 413, 995.116 413.379, 995.402 413.842 M 645.052 452.583 C 645.169 454.635, 655.854 494.386, 655.916 493 C 655.995 491.239, 646.193 452.860, 645.483 452.149 C 645.217 451.884, 645.023 452.079, 645.052 452.583 M 656.005 495.583 C 656.008 496.087, 657.107 501.675, 658.447 508 C 664.878 538.345, 671.467 587.517, 670.393 597.154 C 669.787 602.594, 670.358 605.515, 671.846 604.595 C 673.594 603.515, 669.850 567.350, 664.914 537.638 C 660.911 513.549, 655.975 490.246, 656.005 495.583 M 931.644 646.898 C 918.173 668.722, 889.578 695.116, 853 719.487 C 794.478 758.479, 712.116 792.514, 652.059 802.523 C 643.697 803.917, 640.103 804.824, 642.683 804.891 C 653.782 805.179, 689.693 796.507, 718.782 786.514 C 806.353 756.430, 885.327 707.926, 923.959 660.500 C 930.022 653.058, 937 643.031, 937 641.763 C 937 639.608, 934.902 641.619, 931.644 646.898 M 687.537 656.750 C 687.164 657.712, 683.998 668.400, 680.501 680.500 C 672.511 708.144, 657.271 752.991, 650.872 767.694 C 648.192 773.850, 646 779.459, 646 780.158 C 646 791.734, 679.477 695.043, 688.382 657.750 C 689.115 654.680, 688.582 654.049, 687.537 656.750 M 597.481 707.500 C 597.747 709.150, 599.741 719.207, 601.913 729.849 C 604.084 740.491, 605.619 749.829, 605.323 750.601 C 604.617 752.441, 605.781 757, 606.956 757 C 607.461 757, 607.637 755.313, 607.348 753.250 C 606.438 746.771, 599.060 710.643, 598.005 707.500 L 596.998 704.500 597.481 707.500 M 1350.298 772.967 C 1350.016 774.049, 1348.820 775.230, 1347.642 775.592 C 1346.464 775.954, 1341 778.389, 1335.500 781.003 C 1296.591 799.497, 1274.705 827.712, 1269.947 865.513 C 1267.913 881.677, 1269.727 911.477, 1272.864 913.416 C 1274.181 914.230, 1296.895 902.671, 1306.624 896.237 C 1333.016 878.782, 1345.633 858.587, 1349.883 827 C 1351.642 813.928, 1352.137 799.838, 1351.219 789 C 1350.390 779.215, 1351.076 772.742, 1352.762 774.429 C 1353.150 774.817, 1353.995 781.067, 1354.640 788.317 C 1356.075 804.464, 1354.360 827.382, 1350.610 842.163 C 1342.977 872.256, 1325.104 891.860, 1288.688 910.087 C 1275.334 916.770, 1271.084 918.291, 1272.595 915.845 C 1273.047 915.115, 1272.869 914.963, 1272.111 915.432 C 1271.452 915.839, 1270.288 915.654, 1269.525 915.021 C 1268.374 914.066, 1268.271 914.349, 1268.916 916.685 C 1269.544 918.955, 1270.213 919.463, 1272.375 919.308 C 1276.333 919.024, 1308.046 903.007, 1308.833 900.894 C 1309.017 900.403, 1309.631 900, 1310.199 900 C 1311.544 900, 1323.160 890.935, 1329.318 885.081 C 1346.909 868.354, 1355.939 842.084, 1356.326 806.500 C 1356.422 797.700, 1356.121 786.112, 1355.657 780.750 C 1354.895 771.947, 1354.619 771, 1352.813 771 C 1351.665 771, 1350.594 771.838, 1350.298 772.967 M 836.334 853.250 C 828.949 859.694, 791.396 893.926, 783.952 901 C 782.505 902.375, 778.214 906.200, 774.417 909.500 C 770.621 912.800, 764.801 917.975, 761.486 921 C 758.170 924.025, 752.108 929.425, 748.015 933 C 743.922 936.575, 738.082 941.778, 735.037 944.561 C 731.991 947.345, 727.876 950.945, 725.891 952.561 C 717.844 959.114, 681.405 990.782, 680.128 992.333 C 679.373 993.250, 679.094 994, 679.508 994 C 681.717 994, 699.669 979.142, 738 945.592 C 767.583 919.699, 831.749 861.226, 837 855.376 C 845.030 846.430, 844.841 845.827, 836.334 853.250 M 514.478 908 C 514.885 916.233, 514.845 916, 515.834 916 C 516.293 916, 516.289 913.188, 515.824 909.750 C 514.646 901.035, 514.099 900.324, 514.478 908 M 823.587 947.657 C 819.149 951.689, 818.946 952.052, 821.486 951.414 C 823.484 950.913, 824.093 951.040, 823.590 951.854 C 822.647 953.381, 823.522 953.298, 826.923 951.540 C 829.464 950.226, 831.631 946.298, 830.460 945.127 C 830.207 944.874, 829.955 945.304, 829.900 946.083 C 829.845 946.862, 829.508 946.531, 829.150 945.347 C 828.536 943.315, 828.225 943.444, 823.587 947.657 M 828.849 1011.484 C 826.840 1012.223, 822.196 1014.216, 818.529 1015.914 C 814.861 1017.611, 811.670 1019, 811.437 1019 C 810.882 1019, 794.052 1026.591, 781.956 1032.298 C 766.496 1039.591, 717.563 1064.103, 717.009 1064.831 C 716.729 1065.199, 711.835 1067.864, 706.134 1070.753 C 698.067 1074.842, 671.863 1089.507, 661 1096.013 C 619.076 1121.122, 599.720 1134.139, 598.741 1137.881 C 598.400 1139.185, 604.307 1135.810, 617.535 1127.141 C 648.387 1106.924, 662.716 1098.251, 694.801 1080.375 C 705.967 1074.154, 716.265 1068.150, 717.686 1067.032 C 719.107 1065.915, 720.856 1065, 721.573 1065 C 722.290 1065, 735.392 1058.764, 750.688 1051.143 C 765.985 1043.522, 789.300 1032.485, 802.500 1026.617 C 815.700 1020.750, 829.200 1014.638, 832.500 1013.035 C 837.780 1010.470, 838.140 1010.121, 835.500 1010.130 C 833.850 1010.136, 830.857 1010.745, 828.849 1011.484 M 940.012 1051.857 C 950.312 1067.256, 956.673 1087.283, 957.713 1107.595 C 958.268 1118.427, 958.226 1118.728, 955.918 1120.345 C 952.895 1122.462, 949.608 1122.414, 938.500 1120.093 C 924.011 1117.064, 923.270 1116.954, 928 1118.535 C 932.316 1119.977, 948.231 1123.254, 956.401 1124.384 L 960.301 1124.923 959.682 1113.212 C 958.789 1096.322, 954.951 1079.129, 949.034 1065.511 C 946.819 1060.413, 936.684 1044.541, 934.966 1043.479 C 934.443 1043.156, 936.714 1046.926, 940.012 1051.857 M 722.839 1073.718 C 723.359 1074.698, 724.301 1078.875, 724.933 1083 C 728.473 1106.114, 736.788 1129.705, 746.661 1144.652 C 750.857 1151.004, 762.964 1162.948, 770.032 1167.707 C 782.189 1175.894, 807.062 1185.240, 824 1187.986 C 833.015 1189.447, 837.191 1190.881, 836.358 1192.231 C 835.046 1194.352, 813.248 1190.102, 797.500 1184.656 C 785.833 1180.620, 769.878 1172.406, 763 1166.893 C 759.425 1164.028, 757.400 1162.708, 758.500 1163.961 C 764.364 1170.636, 782.098 1180.584, 797.500 1185.838 C 809.475 1189.923, 829.181 1194.480, 838 1195.202 L 841.500 1195.489 841.245 1190.495 C 839.661 1159.409, 827.789 1126.462, 812.399 1110.441 C 810.255 1108.209, 809.447 1107.534, 810.605 1108.941 C 823.253 1124.319, 830.836 1140.339, 835.956 1162.500 C 838.653 1174.175, 840.311 1188.089, 839.143 1189.257 C 837.316 1191.084, 836.281 1189.049, 835.597 1182.278 C 833.105 1157.642, 823.748 1131.918, 811.479 1115.973 C 798.036 1098.503, 767.108 1081.800, 735.500 1074.940 C 730.550 1073.866, 725.464 1072.750, 724.198 1072.461 C 722.240 1072.014, 722.037 1072.203, 722.839 1073.718 M 880.942 1096.850 C 882.899 1098.693, 887.875 1102.188, 892 1104.618 C 899.709 1109.159, 918.766 1117.043, 921.798 1116.945 C 922.734 1116.915, 920.350 1115.766, 916.500 1114.392 C 902.128 1109.261, 887.809 1101.823, 879.442 1095.143 C 878.310 1094.239, 878.985 1095.008, 880.942 1096.850 M 514.800 1226.250 C 471.713 1269.287, 425.010 1316.200, 411.017 1330.500 C 397.023 1344.800, 432.470 1309.701, 489.787 1252.502 C 547.104 1195.303, 594 1148.390, 594 1148.252 C 594 1147.270, 584.811 1156.320, 514.800 1226.250 M 371.671 1368.950 C 365.289 1375.523, 357.713 1382.761, 354.835 1385.036 C 345.889 1392.108, 334.359 1397.071, 322.464 1398.971 L 316.500 1399.924 322.651 1399.488 C 330.246 1398.949, 342.810 1394.462, 350.502 1389.542 C 356.515 1385.695, 386.344 1357.073, 384.388 1357.027 C 383.776 1357.012, 378.054 1362.378, 371.671 1368.950" stroke="none" fill="#24732b" fill-rule="evenodd"/><path d="M 779.679 206.525 C 777.093 209.811, 771.227 218.125, 766.645 225 C 729.944 280.064, 705.987 344.001, 696.952 411 C 693.072 439.770, 693.147 489.987, 697.113 518.097 C 698.150 525.446, 698.065 526.100, 694.518 538.097 C 688.979 556.834, 673.906 602.331, 672.771 603.739 C 670.740 606.261, 669.751 603.732, 670.378 597.614 C 671.082 590.736, 667.641 559.479, 663.450 534.686 C 649.398 451.567, 621.280 371.959, 588.682 323 C 578.519 307.737, 559.946 285.673, 558.516 287.164 C 557.765 287.948, 555.903 307.163, 554.945 324.018 C 553.136 355.836, 556.285 395.054, 563.496 430.508 C 577.427 498.993, 607.853 562.397, 652.763 616.523 L 663.790 629.813 654.042 654.156 C 636.638 697.622, 609.532 757, 607.094 757 C 605.819 757, 604.575 752.551, 605.313 750.628 C 605.992 748.858, 600.187 719.625, 594.893 698.159 C 571.573 603.594, 531.043 510.210, 489.144 454.506 C 474.829 435.474, 452.989 411.678, 451.345 413.321 C 450.291 414.376, 452.860 449.532, 455.561 471 C 464.659 543.320, 483.562 608.739, 512.052 666.500 C 532.795 708.553, 555.094 740.834, 585.442 772.738 L 595.180 782.976 583.921 803.738 C 572.179 825.390, 556.276 853.052, 545.251 871 C 532.401 891.921, 516.664 916, 515.841 916 C 514.899 916, 514.799 915.475, 514.458 908.736 C 513.874 897.192, 496.576 838.147, 489.864 824.790 C 488.839 822.749, 488 820.590, 488 819.992 C 488 819.394, 485.042 811.838, 481.426 803.202 C 438.774 701.327, 385.988 619.517, 335.408 576.898 C 324.075 567.348, 317.194 562.473, 316.306 563.361 C 315.445 564.222, 319.115 584.602, 323.624 604 C 346.194 701.084, 386.698 788.193, 437.965 849.903 C 457.966 873.978, 479.475 894.440, 504.226 912.939 L 513.953 920.208 507.292 929.854 C 494.566 948.283, 476.545 973.588, 465.171 989 C 458.880 997.525, 454.089 1004.166, 454.524 1003.759 C 455.537 1002.810, 458.159 1004.934, 457.430 1006.113 C 457.129 1006.601, 457.467 1007, 458.182 1007 C 458.897 1007, 468.936 1016.337, 480.491 1027.750 L 501.500 1048.500 480.419 1027 C 468.825 1015.175, 459.431 1004.938, 459.544 1004.250 C 459.658 1003.563, 459.806 1002.619, 459.875 1002.154 C 459.944 1001.689, 468.940 1010.310, 479.866 1021.311 C 493.354 1034.892, 500.480 1041.370, 502.061 1041.486 C 504.712 1041.681, 505.237 1040.989, 526.319 1009.500 C 540.534 988.267, 549.061 974.742, 558.472 958.500 C 561.659 953, 566.414 944.900, 569.040 940.500 C 584.704 914.246, 613.895 856.142, 630.006 819.147 C 633.110 812.020, 636.256 806.255, 637.443 805.520 C 638.574 804.820, 644.675 803.493, 651 802.571 C 687.108 797.307, 739.743 779.511, 788.500 756.079 C 820.340 740.778, 855.191 719.480, 880.500 699.855 C 900.922 684.020, 925.350 658.397, 932.997 644.791 L 935.196 640.878 928.848 641.499 C 909.529 643.389, 902.138 644.332, 889 646.583 C 826.064 657.366, 762.417 684.413, 712 721.798 C 693.726 735.349, 683.739 744.097, 664.561 763.353 C 654.694 773.259, 646.455 780.866, 646.253 780.258 C 646.050 779.650, 648.103 774.056, 650.814 767.826 C 657.264 753.008, 672.482 708.241, 680.501 680.500 C 683.998 668.400, 687.140 657.776, 687.483 656.891 C 688.309 654.757, 690.759 653.631, 701.500 650.449 C 731.654 641.517, 781.891 615.072, 829 583.333 C 850.516 568.837, 849.358 569.664, 867.503 555.825 C 912.935 521.175, 942.025 492.817, 970.931 455 C 980.886 441.977, 996.884 414.664, 995.176 413.609 C 994.675 413.299, 988.692 414.398, 981.882 416.051 C 899.008 436.172, 812.544 487.518, 756.584 549.842 C 734.052 574.937, 713.058 603.733, 699.035 628.777 C 695.562 634.980, 692.333 640.294, 691.860 640.587 C 690.379 641.502, 690.909 637.727, 693.534 628.672 C 696.619 618.032, 699.939 602.135, 703.837 579.340 L 706.772 562.180 713.282 552.340 C 728.101 529.941, 742.056 498.790, 755.319 458.500 C 774.788 399.359, 785.513 346.861, 790.050 288.500 C 790.649 280.800, 791.386 272.025, 791.689 269 C 792.543 260.474, 788.257 215.739, 785.581 205.250 L 784.382 200.550 779.679 206.525 M 1387.500 217.237 C 1275.103 365.915, 1095.855 544.338, 887.500 714.935 C 824.179 766.782, 760.695 815.710, 702.172 857.771 L 679.843 873.819 663.629 906.160 C 641.596 950.106, 619.729 989.167, 600.306 1019.274 C 596.838 1024.650, 594 1029.450, 594 1029.941 C 594 1030.432, 593.546 1030.985, 592.990 1031.170 C 591.995 1031.502, 590.679 1036, 591.577 1036 C 591.832 1036, 593.848 1034.858, 596.059 1033.463 C 600.286 1030.794, 620.445 1021.845, 650.366 1009.353 C 660.193 1005.250, 669.257 1001.223, 670.508 1000.403 C 671.759 999.583, 676.094 997.853, 680.142 996.558 C 684.189 995.263, 697.850 990.392, 710.500 985.734 C 737.693 975.720, 755.987 969.665, 789.395 959.622 C 810.955 953.140, 814.708 951.706, 819.428 948.142 C 825.914 943.245, 827.531 939.405, 826.519 931.304 C 825.397 922.322, 825.813 905.960, 827.442 895.069 C 831.032 871.056, 842.514 848.060, 858.183 833.500 C 869.887 822.624, 900.100 805.770, 910.430 804.355 L 914.791 803.757 915.620 814.628 C 916.076 820.608, 916.460 831.836, 916.474 839.580 C 916.499 853.201, 916.413 853.789, 913.837 857.580 C 912.373 859.736, 910.647 864.200, 910.003 867.500 C 907.903 878.249, 905.844 884.354, 901.383 893.058 C 893.677 908.090, 883.026 919.149, 865.051 930.777 C 860.348 933.820, 857.009 936.484, 857.631 936.698 C 861.196 937.925, 883.199 923.103, 891.140 914.126 C 903.202 900.490, 911.159 883.616, 913.588 866.524 L 914.295 861.547 956.971 819.024 C 980.443 795.636, 1004.346 771.550, 1010.090 765.500 C 1033.324 741.026, 1039.802 734.149, 1046.365 726.989 C 1050.141 722.870, 1055.541 717.012, 1058.365 713.972 C 1069.229 702.276, 1079.937 690.376, 1082.170 687.517 C 1083.452 685.877, 1085.690 683.402, 1087.145 682.017 C 1093.025 676.422, 1135.154 626.880, 1158.593 598 C 1256.479 477.386, 1328.984 363.139, 1377.225 253.500 C 1382.657 241.154, 1387.660 229.148, 1390.352 222 C 1391.698 218.425, 1393.945 212.912, 1395.345 209.750 C 1396.745 206.588, 1397.802 204.002, 1397.695 204.005 C 1397.588 204.007, 1393 209.962, 1387.500 217.237 M 1381.907 229.348 C 1381.031 230.532, 1371.850 243.875, 1361.505 259 C 1310.103 334.152, 1259.866 400.695, 1204.542 466.912 C 1197.919 474.839, 1191.165 482.939, 1189.533 484.912 C 1186.146 489.007, 1158.066 521.923, 1156.519 523.612 C 1155.959 524.224, 1153.040 527.552, 1150.034 531.007 C 1147.027 534.463, 1144.102 537.792, 1143.534 538.405 C 1142.965 539.019, 1139.831 542.666, 1136.569 546.510 C 1133.307 550.355, 1130.157 553.950, 1129.569 554.500 C 1128.981 555.050, 1124.707 559.775, 1120.071 565 C 1110.785 575.465, 1102.526 584.476, 1071.493 618 C 1032.494 660.130, 988.589 705.205, 933.037 760.147 C 902.532 790.316, 878.066 815, 878.666 815 C 880.997 815, 898.481 798.347, 949.626 747.410 C 1014.038 683.260, 1050.624 645.351, 1090.443 601.500 C 1096.436 594.900, 1104.319 586.350, 1107.961 582.500 C 1120.254 569.503, 1159.060 525.257, 1182.500 497.510 C 1188 491, 1195.218 482.484, 1198.540 478.587 C 1219.924 453.495, 1261.840 400.622, 1290.570 362.500 C 1333.086 306.084, 1385.958 229.541, 1383.820 227.501 C 1383.644 227.333, 1382.783 228.164, 1381.907 229.348 M 1217 768.387 C 1164.847 790.220, 1139.810 826.416, 1140.055 879.628 C 1140.105 890.605, 1141.773 905.453, 1143.355 909 C 1143.941 910.315, 1142.572 910.385, 1132.262 909.566 C 1108.538 907.683, 1009.032 912.981, 999.513 916.634 C 996.225 917.895, 998.097 919.259, 1002.320 918.680 C 1027.156 915.276, 1068.948 912.832, 1108.195 912.489 C 1127.277 912.323, 1143.426 911.855, 1144.082 911.449 C 1144.963 910.905, 1145.069 908.198, 1144.487 901.106 C 1142.381 875.454, 1143.607 855.023, 1148.137 840.238 C 1152.584 825.727, 1163.721 808.060, 1175.127 797.422 C 1182.960 790.117, 1197.259 780.772, 1209 775.284 C 1224.924 767.841, 1224.996 767.802, 1224.407 766.849 C 1223.684 765.680, 1223.253 765.769, 1217 768.387 M 1225.539 780.250 C 1226.828 797.860, 1226.780 800.509, 1224.909 814.940 C 1222.753 831.565, 1220.906 839.567, 1217.015 849.128 C 1209.738 867.010, 1196.634 880.371, 1170.500 896.558 C 1168.850 897.580, 1164.463 899.880, 1160.750 901.669 C 1157.037 903.458, 1154 905.131, 1154 905.386 C 1154 905.641, 1155.643 905.645, 1157.652 905.396 C 1162.355 904.813, 1175.284 898.075, 1184.933 891.178 C 1216.075 868.918, 1225.444 850.857, 1229.634 805 C 1230.533 795.156, 1230.549 795.820, 1229.067 781.599 C 1227.878 770.188, 1227.570 769, 1225.799 769 C 1225.036 769, 1224.959 772.333, 1225.539 780.250 M 1059.138 774.046 C 1034.802 783.930, 1012.055 801.913, 999.843 820.922 C 987.428 840.247, 981.588 867.734, 984.011 895.446 C 984.591 902.076, 985.490 909.300, 986.009 911.500 C 986.528 913.700, 986.963 915.999, 986.976 916.608 C 986.990 917.254, 983.140 918.233, 977.750 918.955 C 930.364 925.303, 850.980 941.884, 859.129 943.731 C 860.025 943.934, 863.850 943.371, 867.629 942.480 C 897.374 935.468, 936.182 928.018, 966.500 923.500 C 975.850 922.106, 984.796 920.445, 986.381 919.807 L 989.262 918.649 988.686 911.074 C 988.369 906.909, 987.616 898.553, 987.012 892.506 C 986.114 883.524, 986.205 878.975, 987.505 867.655 C 990.705 839.793, 999.761 820.930, 1018.470 803.158 C 1031.584 790.702, 1058.675 774.872, 1066.461 775.118 C 1066.989 775.134, 1067.664 774.458, 1067.961 773.615 C 1068.709 771.488, 1069.554 793.172, 1069.243 806.500 C 1068.793 825.815, 1066.104 840.363, 1060.284 854.978 C 1056.316 864.940, 1046.484 878.384, 1038.535 884.713 C 1031.061 890.664, 1015.565 900.701, 1006.262 905.618 C 1001.181 908.303, 997.019 910.797, 997.012 911.159 C 996.987 912.553, 1007.028 909.083, 1013.609 905.424 C 1037.199 892.310, 1053.361 877.114, 1062.071 859.859 C 1066.540 851.006, 1070.769 833.152, 1072.055 817.703 C 1072.669 810.336, 1073.232 803.676, 1073.307 802.904 C 1073.382 802.132, 1073.066 795.875, 1072.605 789 C 1071.782 776.711, 1070.224 770.971, 1067.724 771.028 C 1067.051 771.043, 1063.187 772.401, 1059.138 774.046 M 1338.500 776.519 C 1289.170 798.763, 1266.045 832.989, 1266.011 883.808 C 1266 899.427, 1267.370 912.471, 1269.264 914.796 C 1269.845 915.508, 1270.947 915.851, 1271.712 915.557 C 1272.478 915.263, 1272.829 915.468, 1272.493 916.011 C 1271.091 918.280, 1275.651 916.611, 1288.688 910.087 C 1310.656 899.092, 1325.999 887.387, 1335.784 874.157 C 1346.790 859.279, 1352.114 842.968, 1354.425 817.044 C 1355.541 804.538, 1355.582 798.923, 1354.640 788.317 C 1353.995 781.067, 1353.150 774.817, 1352.762 774.429 C 1351.076 772.742, 1350.390 779.215, 1351.219 789 C 1352.137 799.838, 1351.642 813.928, 1349.883 827 C 1345.633 858.587, 1333.016 878.782, 1306.624 896.237 C 1296.895 902.671, 1274.181 914.230, 1272.864 913.416 C 1269.727 911.477, 1267.913 881.677, 1269.947 865.513 C 1273.885 834.225, 1289.254 809.872, 1316.500 791.744 C 1324.639 786.329, 1342.045 777.314, 1347.750 775.558 C 1349.794 774.929, 1351.033 771.993, 1349.250 772.005 C 1348.838 772.008, 1344 774.039, 1338.500 776.519 M 836.334 853.250 C 828.949 859.694, 791.396 893.926, 783.952 901 C 782.505 902.375, 778.214 906.200, 774.417 909.500 C 770.621 912.800, 764.801 917.975, 761.486 921 C 758.170 924.025, 752.108 929.425, 748.015 933 C 743.922 936.575, 738.082 941.778, 735.037 944.561 C 731.991 947.345, 727.876 950.945, 725.891 952.561 C 717.844 959.114, 681.405 990.782, 680.128 992.333 C 679.373 993.250, 679.094 994, 679.508 994 C 681.717 994, 699.669 979.142, 738 945.592 C 767.583 919.699, 831.749 861.226, 837 855.376 C 845.030 846.430, 844.841 845.827, 836.334 853.250 M 660.500 887.203 C 646.169 897.250, 597.623 929.443, 583.551 938.232 C 576.979 942.336, 571.412 946.264, 571.180 946.960 C 570.689 948.432, 576.398 945.249, 590.731 936.059 C 596.358 932.452, 602.433 928.628, 604.231 927.562 C 613.674 921.962, 661.863 889.159, 667.690 884.364 C 674.852 878.470, 670.514 880.183, 660.500 887.203 M 1156.531 911.949 C 1155.784 913.158, 1158.930 913.602, 1178 914.984 C 1216.146 917.749, 1262.400 925.127, 1299.998 934.446 C 1305.224 935.741, 1311.750 937.083, 1314.500 937.427 C 1317.250 937.772, 1321.300 938.318, 1323.500 938.641 C 1331.562 939.825, 1325.903 937.911, 1306.931 933.038 C 1266.914 922.759, 1229.755 916.398, 1187 912.509 C 1168.027 910.783, 1157.373 910.588, 1156.531 911.949 M 1168.500 927.662 C 1165.200 927.856, 1161.375 928.302, 1160 928.653 C 1153.717 930.258, 1166.293 930.790, 1200.415 930.363 C 1236.027 929.917, 1264.120 931.020, 1270.750 933.124 C 1272.842 933.788, 1274.148 934.930, 1274.414 936.328 C 1274.641 937.522, 1275.783 943.675, 1276.951 950 C 1285.197 994.618, 1302.548 1021.004, 1333.839 1036.509 C 1348.907 1043.975, 1364.853 1049.045, 1381 1051.505 C 1386.326 1052.316, 1389.870 1052.448, 1390.492 1051.858 C 1391.955 1050.468, 1389.414 1049.236, 1383.548 1048.491 C 1376.336 1047.575, 1357.963 1042.708, 1347.914 1039.053 C 1317.020 1027.814, 1297.412 1007.146, 1286.674 974.500 C 1283.575 965.076, 1279.421 947.706, 1278.468 940.187 C 1277.572 933.115, 1274.835 930.012, 1268.440 928.819 C 1263.626 927.921, 1180.458 926.958, 1168.500 927.662 M 1109 933.056 C 1086.568 936.098, 1059.366 940.749, 1038.555 945.098 C 1016.566 949.694, 1009 951.750, 1009 953.132 C 1009 954.438, 1014.754 953.595, 1034.500 949.397 C 1061.909 943.570, 1079.825 940.657, 1126.080 934.507 C 1131.680 933.762, 1132.606 935.207, 1135.047 948.500 C 1140.778 979.706, 1152.698 1005.954, 1166.800 1018.418 C 1183.147 1032.867, 1206.865 1044.079, 1233.570 1049.983 C 1244.427 1052.383, 1249 1052.554, 1249 1050.561 C 1249 1049.603, 1247.415 1048.906, 1244.250 1048.474 C 1241.638 1048.118, 1234.325 1046.507, 1228 1044.895 C 1194.645 1036.394, 1170.014 1021.324, 1157.784 1001.936 C 1150.044 989.665, 1142.470 968.682, 1138.496 948.500 C 1136.782 939.791, 1135.324 934.886, 1134.080 933.640 C 1131.399 930.953, 1125.513 930.815, 1109 933.056 M 1158 935.715 C 1158 936.205, 1161.263 937.625, 1165.250 938.870 C 1175.994 942.225, 1201.420 955.167, 1210.015 961.655 C 1227.777 975.064, 1240.737 999.175, 1246.484 1029.500 C 1247.318 1033.900, 1248.002 1038.625, 1248.005 1040 C 1248.014 1043.871, 1249.970 1050, 1251.196 1050 C 1251.956 1050, 1252.116 1047.444, 1251.712 1041.750 C 1249.716 1013.615, 1237.328 983.363, 1220.761 966.166 C 1212.182 957.261, 1186.373 942.347, 1171.500 937.700 C 1164.832 935.616, 1158 934.612, 1158 935.715 M 1318 942.452 C 1318 942.700, 1321.931 944.746, 1326.735 946.997 C 1345.512 955.796, 1363.139 969.621, 1371.997 982.496 C 1381.125 995.762, 1387.851 1015.275, 1389.947 1034.571 C 1391.423 1048.153, 1391.791 1050, 1393.019 1050 C 1394.497 1050, 1394.195 1036.772, 1392.472 1026 C 1386.832 990.745, 1368.436 965.034, 1336.848 948.257 C 1328.428 943.785, 1318 940.573, 1318 942.452 M 1009 959.918 C 1009 960.424, 1012.038 961.833, 1015.750 963.050 C 1032.676 968.600, 1054.260 980.987, 1066.505 992.178 C 1072.137 997.325, 1080.153 1008.351, 1084.423 1016.820 C 1090.613 1029.099, 1095.987 1051.085, 1095.996 1064.168 C 1096 1070.221, 1096.665 1073, 1098.107 1073 C 1099.527 1073, 1099.142 1053.919, 1097.555 1045.626 C 1091.809 1015.592, 1079.002 995.376, 1055.318 978.954 C 1038.801 967.502, 1009 955.254, 1009 959.918 M 975.500 960.687 C 953.007 965.742, 871.851 992.798, 864.527 997.684 C 859.526 1001.021, 869.296 998.579, 888.809 991.617 C 914.099 982.592, 937.990 974.787, 960.500 968.193 C 982.512 961.745, 981.844 961.882, 981.312 963.917 C 980.635 966.504, 984.746 985.242, 988.670 997.458 C 998.970 1029.524, 1015.183 1047.704, 1045.603 1061.296 C 1065.819 1070.328, 1096 1077.923, 1096 1073.979 C 1096 1072.515, 1092.551 1071.349, 1084.190 1069.987 C 1066.477 1067.103, 1043.203 1057.911, 1028.432 1047.966 C 1006.765 1033.379, 995.360 1013.974, 986.668 976.907 C 983.898 965.097, 982.466 961, 981.107 961 C 980.588 961, 979.564 960.828, 978.832 960.619 C 978.099 960.409, 976.600 960.440, 975.500 960.687 M 863.249 1005.259 C 863.474 1005.942, 868.798 1008.339, 875.079 1010.586 C 921.087 1027.047, 944.468 1052.101, 952.454 1093.500 C 953.705 1099.985, 956.013 1119.125, 955.604 1119.628 C 955.264 1120.046, 937.964 1116.593, 929.583 1114.434 C 880.212 1101.717, 856.629 1076.218, 845.022 1023 C 842.314 1010.584, 842.033 1009.893, 840.899 1012.839 C 839.110 1017.487, 845.627 1043.170, 852.722 1059.429 C 866.513 1091.034, 894.871 1111.236, 937.657 1119.935 C 949.941 1122.432, 952.845 1122.498, 955.918 1120.345 C 958.226 1118.728, 958.268 1118.427, 957.713 1107.595 C 956.686 1087.548, 950.427 1067.618, 940.357 1052.327 C 930.137 1036.807, 917.677 1026.642, 895.395 1015.647 C 878.739 1007.427, 862.201 1002.083, 863.249 1005.259 M 828.849 1011.484 C 826.840 1012.223, 822.196 1014.216, 818.529 1015.914 C 814.861 1017.611, 811.670 1019, 811.437 1019 C 810.882 1019, 794.052 1026.591, 781.956 1032.298 C 766.496 1039.591, 717.563 1064.103, 717.009 1064.831 C 716.729 1065.199, 711.835 1067.864, 706.134 1070.753 C 698.067 1074.842, 671.863 1089.507, 661 1096.013 C 619.076 1121.122, 599.720 1134.139, 598.741 1137.881 C 598.400 1139.185, 604.307 1135.810, 617.535 1127.141 C 648.387 1106.924, 662.716 1098.251, 694.801 1080.375 C 705.967 1074.154, 716.265 1068.150, 717.686 1067.032 C 719.107 1065.915, 720.856 1065, 721.573 1065 C 722.290 1065, 735.392 1058.764, 750.688 1051.143 C 765.985 1043.522, 789.300 1032.485, 802.500 1026.617 C 815.700 1020.750, 829.200 1014.638, 832.500 1013.035 C 837.780 1010.470, 838.140 1010.121, 835.500 1010.130 C 833.850 1010.136, 830.857 1010.745, 828.849 1011.484 M 721.521 1071.361 C 719.715 1072.682, 719.737 1073.145, 722.284 1087.111 C 732.391 1142.553, 752.845 1169.073, 797.500 1184.637 C 813.087 1190.070, 835.041 1194.360, 836.358 1192.231 C 837.191 1190.881, 833.015 1189.447, 824 1187.986 C 807.062 1185.240, 782.189 1175.894, 770.032 1167.707 C 762.964 1162.948, 750.857 1151.004, 746.661 1144.652 C 736.788 1129.705, 728.473 1106.114, 724.933 1083 C 724.301 1078.875, 723.359 1074.698, 722.839 1073.718 C 722.037 1072.203, 722.240 1072.014, 724.198 1072.461 C 725.464 1072.750, 730.550 1073.866, 735.500 1074.940 C 767.108 1081.800, 798.036 1098.503, 811.479 1115.973 C 823.748 1131.918, 833.105 1157.642, 835.597 1182.278 C 836.281 1189.049, 837.316 1191.084, 839.143 1189.257 C 840.311 1188.089, 838.653 1174.175, 835.956 1162.500 C 831.464 1143.055, 824.599 1127.403, 815.170 1115.106 C 807.763 1105.446, 808.406 1106.115, 801.500 1100.894 C 784.141 1087.771, 763.602 1078.348, 739.500 1072.450 C 728.107 1069.662, 724.171 1069.423, 721.521 1071.361 M 560 1107.500 C 578.419 1125.925, 593.714 1141, 593.989 1141 C 594.264 1141, 579.419 1125.925, 561 1107.500 C 542.581 1089.075, 527.286 1074, 527.011 1074 C 526.736 1074, 541.581 1089.075, 560 1107.500 M 594.568 1143.317 C 594.942 1144.291, 591.986 1147.839, 585.962 1153.646 C 580.916 1158.510, 575.854 1163.843, 574.713 1165.495 C 573.573 1167.148, 578.008 1163.325, 584.570 1157 C 595.974 1146.008, 598.024 1143.175, 595.249 1142.250 C 594.482 1141.994, 594.219 1142.407, 594.568 1143.317 M 503.763 1235.750 C 492.250 1247.162, 481.903 1257.850, 480.771 1259.500 C 479.639 1261.150, 489.352 1251.929, 502.356 1239.008 C 515.360 1226.087, 526 1215.400, 526 1215.258 C 526 1213.992, 521.928 1217.745, 503.763 1235.750 M 407.109 1332.481 C 394.194 1345.395, 383.937 1356.270, 384.314 1356.647 C 384.691 1357.025, 385.113 1357.129, 385.250 1356.879 C 385.387 1356.629, 396.071 1345.754, 408.992 1332.712 C 421.913 1319.671, 432.058 1309, 431.537 1309 C 431.016 1309, 420.023 1319.566, 407.109 1332.481" stroke="none" fill="#a3c971" fill-rule="evenodd"/></svg>